<svg version="1.1" id="svg2031" xml:space="preserve" width="300" height="300" viewBox="0 0 682.66669 682.66669" xmlns="http://www.w3.org/2000/svg" xmlns:svg="http://www.w3.org/2000/svg" xmlns:xlink="http://www.w3.org/1999/xlink" xmlns:svgjs="http://svgjs.dev/svgjs"><g width="100%" height="100%" transform="matrix(1,0,0,1,0,0)"><defs id="defs2035"><clipPath clipPathUnits="userSpaceOnUse" id="clipPath2045"><path d="M 0,512 H 512 V 0 H 0 Z" id="path2043" fill="#dfdfc8" fill-opacity="1" data-original-color="#000000ff" stroke="none" stroke-opacity="1"/></clipPath></defs><g id="g2037" transform="matrix(1.3333333,0,0,-1.3333333,0,682.66667)"><g id="g2039"><g id="g2041" clip-path="url(#clipPath2045)"><g id="g2047" transform="translate(177.7939,246.2373)"><path d="m 0,0 c 12.83,1.181 33.945,2.912 61.464,4.503 21.956,1.281 47.985,2.452 77.136,3.183 22.937,0.57 47.805,0.86 74.134,0.69 23.066,-0.14 47.264,-0.63 72.282,-1.601" style="stroke-linecap: round; stroke-linejoin: round; stroke-miterlimit: 10; stroke-dasharray: none;" id="path2049" fill="none" fill-opacity="1" stroke="#dfdfc8" stroke-opacity="1" data-original-stroke-color="#000000ff" stroke-width="15" data-original-stroke-width="15"/></g><g id="g2051" transform="translate(211.2383,379.6133)"><path d="M 0,0 12.689,-58.352 28.02,-128.873 38.988,-179.31" style="stroke-linecap: round; stroke-linejoin: round; stroke-miterlimit: 10; stroke-dasharray: none;" id="path2053" fill="none" fill-opacity="1" stroke="#dfdfc8" stroke-opacity="1" data-original-stroke-color="#000000ff" stroke-width="15" data-original-stroke-width="15"/></g><g id="g2055" transform="translate(305.5361,368.7554)"><path d="m 0,0 4.964,-52.528 5.894,-62.305 4.753,-50.156" style="stroke-linecap: round; stroke-linejoin: round; stroke-miterlimit: 10; stroke-dasharray: none;" id="path2057" fill="none" fill-opacity="1" stroke="#dfdfc8" stroke-opacity="1" data-original-stroke-color="#000000ff" stroke-width="15" data-original-stroke-width="15"/></g><g id="g2059" transform="translate(396.0117,354.2749)"><path d="m 0,0 -2.522,-45.853 -2.962,-53.809 -2.472,-45.072" style="stroke-linecap: round; stroke-linejoin: round; stroke-miterlimit: 10; stroke-dasharray: none;" id="path2061" fill="none" fill-opacity="1" stroke="#dfdfc8" stroke-opacity="1" data-original-stroke-color="#000000ff" stroke-width="15" data-original-stroke-width="15"/></g><g id="g2063" transform="translate(142.7988,323.9634)"><path d="m 0,0 c 18.143,-0.4 47.024,-1.181 81.128,-2.702 26.56,-1.181 56.281,-2.802 86.573,-5.034 27.86,-2.051 56.201,-4.603 82.99,-7.806 28.281,-3.372 54.82,-7.455 77.246,-12.388" style="stroke-linecap: round; stroke-linejoin: round; stroke-miterlimit: 10; stroke-dasharray: none;" id="path2065" fill="none" fill-opacity="1" stroke="#dfdfc8" stroke-opacity="1" data-original-stroke-color="#000000ff" stroke-width="15" data-original-stroke-width="15"/></g><g id="g2067" transform="translate(110.7002,414.9399)"><path d="M 0,0 C -4.18,11.09 -7.97,20.4 -11.19,27.91" style="stroke-linecap: round; stroke-linejoin: round; stroke-miterlimit: 10; stroke-dasharray: none;" id="path2069" fill="none" fill-opacity="1" stroke="#dfdfc8" stroke-opacity="1" data-original-stroke-color="#000000ff" stroke-width="15" data-original-stroke-width="15"/></g><g id="g2071" transform="translate(70.6802,435.3301)"><path d="m 0,0 c 5.03,-11.49 12.08,-28.73 19.93,-51.37 0,-0.02 0.01,-0.04 0.02,-0.06" style="stroke-linecap: round; stroke-linejoin: round; stroke-miterlimit: 10; stroke-dasharray: none;" id="path2073" fill="none" fill-opacity="1" stroke="#dfdfc8" stroke-opacity="1" data-original-stroke-color="#000000ff" stroke-width="15" data-original-stroke-width="15"/></g><g id="g2075" transform="translate(286.5381,73.8477)"><path d="m 0,0 c 0.697,-2.776 1.06,-5.689 1.06,-8.682 0,-19.923 -16.147,-36.07 -36.071,-36.07 -19.913,0 -36.06,16.147 -36.06,36.07 0,19.924 16.147,36.071 36.06,36.071" style="stroke-linecap: round; stroke-linejoin: round; stroke-miterlimit: 10; stroke-dasharray: none;" id="path2077" fill="none" fill-opacity="1" stroke="#dfdfc8" stroke-opacity="1" data-original-stroke-color="#000000ff" stroke-width="15" data-original-stroke-width="15"/></g><g id="g2079" transform="translate(251.5317,101.2354)"><path d="M 0,0 -5.891,-27.449 C -7.838,-36.525 0.89,-44.226 9.659,-41.178 25.718,-35.596 46.736,-23.869 52.448,0" style="stroke-linecap: round; stroke-linejoin: round; stroke-miterlimit: 10; stroke-dasharray: none;" id="path2081" fill="none" fill-opacity="1" stroke="#dfdfc8" stroke-opacity="1" data-original-stroke-color="#000000ff" stroke-width="15" data-original-stroke-width="15"/></g><g id="g2083" transform="translate(446.1519,73.8477)"><path d="m 0,0 c 0.697,-2.776 1.06,-5.689 1.06,-8.682 0,-19.923 -16.147,-36.07 -36.071,-36.07 -19.913,0 -36.06,16.147 -36.06,36.07 0,19.924 16.147,36.071 36.06,36.071" style="stroke-linecap: round; stroke-linejoin: round; stroke-miterlimit: 10; stroke-dasharray: none;" id="path2085" fill="none" fill-opacity="1" stroke="#dfdfc8" stroke-opacity="1" data-original-stroke-color="#000000ff" stroke-width="15" data-original-stroke-width="15"/></g><g id="g2087" transform="translate(411.1455,101.2354)"><path d="M 0,0 -5.89,-27.449 C -7.838,-36.525 0.89,-44.226 9.659,-41.178 25.718,-35.596 46.736,-23.869 52.448,0" style="stroke-linecap: round; stroke-linejoin: round; stroke-miterlimit: 10; stroke-dasharray: none;" id="path2089" fill="none" fill-opacity="1" stroke="#dfdfc8" stroke-opacity="1" data-original-stroke-color="#000000ff" stroke-width="15" data-original-stroke-width="15"/></g><g id="g2091" transform="translate(300.1001,173.04)"><path d="m 0,0 c -0.02,-0.01 -0.04,-0.01 -0.06,-0.01 -28.49,-2.86 -60.92,-10.13 -88.99,-26.57 -4.98,-2.91 -4.33,-7.58 -3.82,-9.46 0.51,-1.9 2.35,-6.33 8.24,-6.33 h 206.77" style="stroke-linecap: round; stroke-linejoin: round; stroke-miterlimit: 10; stroke-dasharray: none;" id="path2093" fill="none" fill-opacity="1" stroke="#dfdfc8" stroke-opacity="1" data-original-stroke-color="#000000ff" stroke-width="15" data-original-stroke-width="15"/></g><g id="g2095" transform="translate(452.0801,130.6699)"><path d="m 0,0 h 15.02 c 8.12,0 14.71,-6.6 14.71,-14.72 0,-8.13 -6.59,-14.71 -14.71,-14.71 h -251.63 c -17.37,0 -32.1,11.28 -36.65,28.06 -4.23,15.6 1.56,31.51 14.46,40.68 h 0.01" style="stroke-linecap: round; stroke-linejoin: round; stroke-miterlimit: 10; stroke-dasharray: none;" id="path2097" fill="none" fill-opacity="1" stroke="#dfdfc8" stroke-opacity="1" data-original-stroke-color="#000000ff" stroke-width="15" data-original-stroke-width="15"/></g><g id="g2099" transform="translate(325.1001,174.564)"><path d="M 0,0 H 0.108" style="stroke-linecap: round; stroke-linejoin: round; stroke-miterlimit: 10; stroke-dasharray: none;" id="path2101" fill="none" fill-opacity="1" stroke="#dfdfc8" stroke-opacity="1" data-original-stroke-color="#000000ff" stroke-width="15" data-original-stroke-width="15"/></g><g id="g2103" transform="translate(138.3501,335.4702)"><path d="m 0,0 c 15.26,-40.21 36.71,-88.44 65.54,-136.21 33.23,0.35 160.07,2.8 250.5,19.84 5.48,19.72 18.52,71.08 20.44,119.31 -42.37,9.53 -195.68,41.73 -353.79,46.8 2.15,-6.8 4.57,-14.17 7.27,-22.02 m 67.364,-193.413 c -5.093,0 -9.824,2.633 -12.508,6.963 -53.265,85.957 -83.162,174.472 -96.242,219.585 -1.301,4.486 -0.395,9.324 2.443,13.035 2.837,3.711 7.28,5.855 11.937,5.775 195.367,-3.296 390.028,-50.307 391.971,-50.781 6.589,-1.609 11.225,-7.512 11.225,-14.295 0,-68.42 -23.412,-144.798 -24.408,-148.016 -1.588,-5.129 -5.844,-8.985 -11.104,-10.062 -107.199,-21.95 -271.665,-22.204 -273.314,-22.204 z" style="stroke-linecap: round; stroke-linejoin: round; stroke-miterlimit: 10; stroke-dasharray: none;" id="path2105" fill="none" fill-opacity="1" stroke="#dfdfc8" stroke-opacity="1" data-original-stroke-color="#000000ff" stroke-width="15" data-original-stroke-width="15"/></g><g id="g2107" transform="translate(82.1714,435.3252)"><path d="m 0,0 h -50.882 c -13.139,0 -23.789,10.651 -23.789,23.79 0,13.138 10.65,23.789 23.789,23.789 H 0 C 13.139,47.579 23.79,36.928 23.79,23.79 23.79,10.651 13.139,0 0,0 Z" style="stroke-linecap: round; stroke-linejoin: round; stroke-miterlimit: 10; stroke-dasharray: none;" id="path2109" fill="none" fill-opacity="1" stroke="#dfdfc8" stroke-opacity="1" data-original-stroke-color="#000000ff" stroke-width="15" data-original-stroke-width="15"/></g></g></g></g></g></svg>