<svg width="53" height="53" viewBox="0 0 53 53" fill="none" xmlns="http://www.w3.org/2000/svg">
<path d="M26.1924 21.9285H26.2145L37.0352 18.2406C37.0794 18.0419 37.0794 17.8431 37.0794 17.6665C37.0842 17.4786 37.0543 17.2914 36.991 17.1144C36.8144 16.6065 36.4831 16.0544 36.0194 15.6569V10.8207C36.0194 7.24326 34.7385 5.82994 33.4136 5.01286C32.729 2.93705 29.8803 0 24.2932 0C17.6683 0 12.6775 6.55868 12.6775 10.8207C12.6775 12.5874 12.6113 13.9786 12.545 15.0386C12.545 15.2594 12.5229 15.4582 12.5229 15.6348C12.0371 16.0765 11.7059 16.6727 11.5513 17.2469C11.5292 17.3794 11.5071 17.5119 11.5071 17.6665C11.5071 19.389 12.4788 21.8843 12.6113 22.1714C12.7438 22.5468 13.0309 22.856 13.4063 23.0327C13.4284 23.121 13.4504 23.2535 13.4504 23.5185C13.4504 25.8593 15.46 28.0676 16.5642 29.1276C16.4537 31.5567 15.7692 33.2351 14.7975 33.6546L6.14093 36.5254C4.93812 36.9257 3.85597 37.6234 2.99502 38.5539C2.13408 39.4843 1.52226 40.6173 1.2164 41.8475L0.046 46.5291C-0.0126209 46.7733 -0.0152477 47.0276 0.0383163 47.2729C0.0918802 47.5183 0.200247 47.7483 0.355305 47.9459C0.510364 48.1434 0.708096 48.3033 0.933702 48.4136C1.15931 48.5239 1.40694 48.5818 1.65807 48.5828H26.4132C25.7507 47.7437 25.1324 46.8162 24.5582 45.8224C22.9448 42.997 22.0926 39.8011 22.0849 36.5475V27.6922C22.0849 25.0864 23.7412 22.7898 26.1924 21.9285Z" fill="#F5F5DB"/>
<path d="M51.8772 26.1155L40.2836 22.1715C39.9388 22.0522 39.564 22.0522 39.2192 22.1715L27.6256 26.1155C27.2975 26.2262 27.0126 26.437 26.8109 26.7184C26.6092 26.9997 26.501 27.3373 26.5015 27.6834V36.5564C26.5015 47.386 38.5898 52.6506 39.1044 52.8692C39.3091 52.9556 39.5291 53.0001 39.7514 53.0001C39.9736 53.0001 40.1936 52.9556 40.3984 52.8692C40.913 52.6484 53.0012 47.386 53.0012 36.5564V27.6834C53.0018 27.3373 52.8936 26.9997 52.6919 26.7184C52.4902 26.437 52.2052 26.2262 51.8772 26.1155ZM47.0079 34.4895L40.935 42.2185C40.7511 42.4529 40.5216 42.6475 40.2604 42.7908C39.9992 42.9342 39.7118 43.0231 39.4153 43.0524C39.1188 43.0817 38.8195 43.0507 38.5353 42.9613C38.2511 42.8719 37.988 42.7259 37.7617 42.5321L33.8972 39.2197C33.6678 39.0339 33.478 38.804 33.339 38.5436C33.2001 38.2832 33.1147 37.9976 33.0879 37.7037C33.0612 37.4098 33.0937 37.1134 33.1834 36.8323C33.2732 36.5511 33.4183 36.2908 33.6104 36.0666C33.8025 35.8425 34.0375 35.6592 34.3017 35.5275C34.5658 35.3958 34.8537 35.3183 35.1482 35.2998C35.4428 35.2812 35.7381 35.3219 36.0167 35.4194C36.2953 35.5169 36.5515 35.6692 36.7702 35.8674L38.8857 37.6805L43.5342 31.7644C43.7131 31.536 43.9353 31.3452 44.1881 31.2029C44.4409 31.0606 44.7194 30.9696 45.0074 30.9351C45.2955 30.9006 45.5875 30.9234 45.8667 31.002C46.146 31.0807 46.407 31.2137 46.6347 31.3934C46.8631 31.5717 47.054 31.7934 47.1965 32.0458C47.339 32.2981 47.4301 32.5762 47.4648 32.8639C47.4995 33.1516 47.477 33.4433 47.3986 33.7223C47.3202 34.0012 47.1874 34.262 47.0079 34.4895Z" fill="#F5F5DB"/>
</svg>
